<svg width="100" height="30" viewBox="0 0 100 30" fill="none" xmlns="http://www.w3.org/2000/svg">
<rect width="100" height="30" rx="5" fill="#222222"/>
<rect x="5.21429" y="5" width="20.8571" height="20" rx="5" fill="#7BB2D1"/>
<rect x="8" y="8" width="5" height="14" rx="2" fill="#222222"/>
<rect x="17.7286" y="8" width="5.21429" height="7" rx="2" fill="#222222"/>
<path d="M77.3275 18.82C77.2155 18.916 77.0635 18.992 76.8715 19.048C76.6795 19.112 76.4515 19.144 76.1875 19.144C75.8595 19.144 75.5755 19.096 75.3355 19C75.0955 18.912 74.9355 18.784 74.8555 18.616C74.7675 18.424 74.6635 18.12 74.5435 17.704C74.4315 17.288 74.3195 16.832 74.2075 16.336C74.0955 15.84 73.9875 15.336 73.8835 14.824C73.7875 14.312 73.7115 13.86 73.6555 13.468C73.7675 13.356 73.9155 13.26 74.0995 13.18C74.2915 13.092 74.4995 13.048 74.7235 13.048C75.0035 13.048 75.2315 13.112 75.4075 13.24C75.5915 13.36 75.7035 13.572 75.7435 13.876C75.8235 14.484 75.8915 14.988 75.9475 15.388C76.0035 15.78 76.0475 16.104 76.0795 16.36C76.1195 16.608 76.1475 16.8 76.1635 16.936C76.1875 17.064 76.2075 17.168 76.2235 17.248H76.2715C76.2955 17.12 76.3355 16.936 76.3915 16.696C76.4555 16.448 76.5275 16.168 76.6075 15.856C76.6875 15.544 76.7715 15.208 76.8595 14.848C76.9475 14.48 77.0355 14.116 77.1235 13.756C77.2835 13.668 77.4395 13.6 77.5915 13.552C77.7515 13.504 77.9475 13.48 78.1795 13.48C78.4595 13.48 78.6995 13.524 78.8995 13.612C79.0995 13.7 79.2275 13.836 79.2835 14.02C79.3795 14.372 79.4715 14.716 79.5595 15.052C79.6475 15.38 79.7275 15.688 79.7995 15.976C79.8715 16.256 79.9355 16.508 79.9915 16.732C80.0475 16.948 80.0875 17.12 80.1115 17.248H80.1715C80.2595 16.632 80.3435 15.992 80.4235 15.328C80.5115 14.664 80.5915 13.988 80.6635 13.3C80.8075 13.212 80.9595 13.148 81.1195 13.108C81.2795 13.068 81.4395 13.048 81.5995 13.048C81.8795 13.048 82.1115 13.108 82.2955 13.228C82.4795 13.348 82.5715 13.556 82.5715 13.852C82.5715 13.98 82.5515 14.172 82.5115 14.428C82.4715 14.684 82.4195 14.972 82.3555 15.292C82.2915 15.612 82.2155 15.948 82.1275 16.3C82.0475 16.652 81.9635 16.992 81.8755 17.32C81.7955 17.648 81.7155 17.944 81.6355 18.208C81.5635 18.472 81.4995 18.676 81.4435 18.82C81.3315 18.916 81.1595 18.992 80.9275 19.048C80.6955 19.112 80.4475 19.144 80.1835 19.144C79.5115 19.144 79.1155 18.976 78.9955 18.64C78.9475 18.496 78.8875 18.316 78.8155 18.1C78.7435 17.876 78.6675 17.632 78.5875 17.368C78.5075 17.104 78.4315 16.832 78.3595 16.552C78.2875 16.264 78.2275 15.988 78.1795 15.724C78.1235 16.004 78.0555 16.296 77.9755 16.6C77.8955 16.896 77.8115 17.188 77.7235 17.476C77.6435 17.756 77.5675 18.016 77.4955 18.256C77.4235 18.488 77.3675 18.676 77.3275 18.82Z" fill="#7BB2D1"/>
<path d="M73.0785 16.084C73.0785 16.58 73.0025 17.024 72.8505 17.416C72.6985 17.8 72.4825 18.124 72.2025 18.388C71.9305 18.652 71.6025 18.852 71.2185 18.988C70.8345 19.124 70.4065 19.192 69.9345 19.192C69.4625 19.192 69.0345 19.12 68.6505 18.976C68.2665 18.832 67.9345 18.628 67.6545 18.364C67.3825 18.092 67.1705 17.764 67.0185 17.38C66.8665 16.996 66.7905 16.564 66.7905 16.084C66.7905 15.612 66.8665 15.184 67.0185 14.8C67.1705 14.416 67.3825 14.092 67.6545 13.828C67.9345 13.556 68.2665 13.348 68.6505 13.204C69.0345 13.06 69.4625 12.988 69.9345 12.988C70.4065 12.988 70.8345 13.064 71.2185 13.216C71.6025 13.36 71.9305 13.568 72.2025 13.84C72.4825 14.104 72.6985 14.428 72.8505 14.812C73.0025 15.196 73.0785 15.62 73.0785 16.084ZM68.8785 16.084C68.8785 16.572 68.9705 16.948 69.1545 17.212C69.3465 17.468 69.6105 17.596 69.9465 17.596C70.2825 17.596 70.5385 17.464 70.7145 17.2C70.8985 16.936 70.9905 16.564 70.9905 16.084C70.9905 15.604 70.8985 15.236 70.7145 14.98C70.5305 14.716 70.2705 14.584 69.9345 14.584C69.5985 14.584 69.3385 14.716 69.1545 14.98C68.9705 15.236 68.8785 15.604 68.8785 16.084Z" fill="#7BB2D1"/>
<path d="M65.7552 18.988C65.6672 19.004 65.5352 19.024 65.3592 19.048C65.1912 19.08 65.0192 19.096 64.8432 19.096C64.6672 19.096 64.5072 19.084 64.3632 19.06C64.2272 19.036 64.1112 18.988 64.0152 18.916C63.9192 18.844 63.8432 18.748 63.7872 18.628C63.7392 18.5 63.7152 18.336 63.7152 18.136V11.176C63.8032 11.16 63.9312 11.14 64.0992 11.116C64.2752 11.084 64.4512 11.068 64.6272 11.068C64.8032 11.068 64.9592 11.08 65.0952 11.104C65.2392 11.128 65.3592 11.176 65.4552 11.248C65.5512 11.32 65.6232 11.42 65.6712 11.548C65.7272 11.668 65.7552 11.828 65.7552 12.028V18.988Z" fill="#7BB2D1"/>
<path d="M62.5722 11.728C62.6282 11.816 62.6762 11.936 62.7162 12.088C62.7642 12.232 62.7882 12.384 62.7882 12.544C62.7882 12.856 62.7202 13.08 62.5842 13.216C62.4562 13.344 62.2802 13.408 62.0562 13.408H59.5362V14.764H62.1642C62.2282 14.852 62.2802 14.968 62.3202 15.112C62.3682 15.256 62.3922 15.408 62.3922 15.568C62.3922 15.872 62.3242 16.092 62.1882 16.228C62.0602 16.356 61.8842 16.42 61.6602 16.42H59.5602V18.952C59.4722 18.976 59.3322 19 59.1402 19.024C58.9562 19.048 58.7722 19.06 58.5882 19.06C58.4042 19.06 58.2402 19.044 58.0962 19.012C57.9602 18.988 57.8442 18.94 57.7482 18.868C57.6522 18.796 57.5802 18.696 57.5322 18.568C57.4842 18.44 57.4602 18.272 57.4602 18.064V12.844C57.4602 12.5 57.5602 12.228 57.7602 12.028C57.9602 11.828 58.2322 11.728 58.5762 11.728H62.5722Z" fill="#7BB2D1"/>
<path d="M56.348 17.944C56.308 18.32 56.196 18.608 56.012 18.808C55.836 19.008 55.576 19.108 55.232 19.108C54.976 19.108 54.748 19.048 54.548 18.928C54.348 18.8 54.132 18.588 53.9 18.292L52.712 16.804V18.988C52.624 19.004 52.492 19.024 52.316 19.048C52.148 19.08 51.976 19.096 51.8 19.096C51.624 19.096 51.464 19.084 51.32 19.06C51.184 19.036 51.068 18.988 50.972 18.916C50.876 18.844 50.8 18.748 50.744 18.628C50.696 18.5 50.672 18.336 50.672 18.136V11.188C50.76 11.164 50.888 11.14 51.056 11.116C51.232 11.084 51.408 11.068 51.584 11.068C51.76 11.068 51.916 11.08 52.052 11.104C52.196 11.128 52.316 11.176 52.412 11.248C52.508 11.32 52.58 11.42 52.628 11.548C52.684 11.668 52.712 11.828 52.712 12.028V15.196L54.776 13.084C55.192 13.084 55.524 13.176 55.772 13.36C56.028 13.544 56.156 13.776 56.156 14.056C56.156 14.176 56.136 14.288 56.096 14.392C56.056 14.488 55.992 14.588 55.904 14.692C55.824 14.796 55.716 14.908 55.58 15.028C55.452 15.14 55.3 15.272 55.124 15.424L54.428 16.024L56.348 17.944Z" fill="#7BB2D1"/>
<path d="M49.6617 17.26C49.6617 17.868 49.4337 18.344 48.9777 18.688C48.5217 19.032 47.8497 19.204 46.9617 19.204C46.6257 19.204 46.3137 19.18 46.0257 19.132C45.7377 19.084 45.4897 19.012 45.2817 18.916C45.0817 18.812 44.9217 18.684 44.8017 18.532C44.6897 18.38 44.6337 18.2 44.6337 17.992C44.6337 17.8 44.6737 17.64 44.7537 17.512C44.8337 17.376 44.9297 17.264 45.0417 17.176C45.2737 17.304 45.5377 17.42 45.8337 17.524C46.1377 17.62 46.4857 17.668 46.8777 17.668C47.1257 17.668 47.3137 17.632 47.4417 17.56C47.5777 17.488 47.6457 17.392 47.6457 17.272C47.6457 17.16 47.5977 17.072 47.5017 17.008C47.4057 16.944 47.2457 16.892 47.0217 16.852L46.6617 16.78C45.9657 16.644 45.4457 16.432 45.1017 16.144C44.7657 15.848 44.5977 15.428 44.5977 14.884C44.5977 14.588 44.6617 14.32 44.7897 14.08C44.9177 13.84 45.0977 13.64 45.3297 13.48C45.5617 13.32 45.8377 13.196 46.1577 13.108C46.4857 13.02 46.8457 12.976 47.2377 12.976C47.5337 12.976 47.8097 13 48.0657 13.048C48.3297 13.088 48.5577 13.152 48.7497 13.24C48.9417 13.328 49.0937 13.444 49.2057 13.588C49.3177 13.724 49.3737 13.888 49.3737 14.08C49.3737 14.264 49.3377 14.424 49.2657 14.56C49.2017 14.688 49.1177 14.796 49.0137 14.884C48.9497 14.844 48.8537 14.804 48.7257 14.764C48.5977 14.716 48.4577 14.676 48.3057 14.644C48.1537 14.604 47.9977 14.572 47.8377 14.548C47.6857 14.524 47.5457 14.512 47.4177 14.512C47.1537 14.512 46.9497 14.544 46.8057 14.608C46.6617 14.664 46.5897 14.756 46.5897 14.884C46.5897 14.972 46.6297 15.044 46.7097 15.1C46.7897 15.156 46.9417 15.208 47.1657 15.256L47.5377 15.34C48.3057 15.516 48.8497 15.76 49.1697 16.072C49.4977 16.376 49.6617 16.772 49.6617 17.26Z" fill="#7BB2D1"/>
<path d="M40.7104 17.704C40.8464 17.704 40.9944 17.692 41.1544 17.668C41.3224 17.636 41.4464 17.596 41.5264 17.548V16.588L40.6624 16.66C40.4384 16.676 40.2544 16.724 40.1104 16.804C39.9664 16.884 39.8944 17.004 39.8944 17.164C39.8944 17.324 39.9544 17.456 40.0744 17.56C40.2024 17.656 40.4144 17.704 40.7104 17.704ZM40.6144 12.988C41.0464 12.988 41.4384 13.032 41.7904 13.12C42.1504 13.208 42.4544 13.344 42.7024 13.528C42.9584 13.704 43.1544 13.932 43.2904 14.212C43.4264 14.484 43.4944 14.808 43.4944 15.184V17.872C43.4944 18.08 43.4344 18.252 43.3144 18.388C43.2024 18.516 43.0664 18.628 42.9064 18.724C42.3864 19.036 41.6544 19.192 40.7104 19.192C40.2864 19.192 39.9024 19.152 39.5584 19.072C39.2224 18.992 38.9304 18.872 38.6824 18.712C38.4424 18.552 38.2544 18.348 38.1184 18.1C37.9904 17.852 37.9264 17.564 37.9264 17.236C37.9264 16.684 38.0904 16.26 38.4184 15.964C38.7464 15.668 39.2544 15.484 39.9424 15.412L41.5144 15.244V15.16C41.5144 14.928 41.4104 14.764 41.2024 14.668C41.0024 14.564 40.7104 14.512 40.3264 14.512C40.0224 14.512 39.7264 14.544 39.4384 14.608C39.1504 14.672 38.8904 14.752 38.6584 14.848C38.5544 14.776 38.4664 14.668 38.3944 14.524C38.3224 14.372 38.2864 14.216 38.2864 14.056C38.2864 13.848 38.3344 13.684 38.4304 13.564C38.5344 13.436 38.6904 13.328 38.8984 13.24C39.1304 13.152 39.4024 13.088 39.7144 13.048C40.0344 13.008 40.3344 12.988 40.6144 12.988Z" fill="#7BB2D1"/>
<path d="M31.7297 13.408C31.6737 13.32 31.6217 13.2 31.5737 13.048C31.5257 12.896 31.5017 12.736 31.5017 12.568C31.5017 12.256 31.5697 12.032 31.7057 11.896C31.8497 11.76 32.0337 11.692 32.2577 11.692H37.4897C37.5457 11.78 37.5977 11.9 37.6457 12.052C37.6937 12.204 37.7177 12.364 37.7177 12.532C37.7177 12.844 37.6457 13.068 37.5017 13.204C37.3657 13.34 37.1857 13.408 36.9617 13.408H35.6297V18.952C35.5417 18.976 35.4017 19 35.2097 19.024C35.0257 19.048 34.8417 19.06 34.6577 19.06C34.4737 19.06 34.3097 19.044 34.1657 19.012C34.0297 18.988 33.9137 18.94 33.8177 18.868C33.7217 18.796 33.6497 18.696 33.6017 18.568C33.5537 18.44 33.5297 18.272 33.5297 18.064V13.408H31.7297Z" fill="#7BB2D1"/>
</svg>